# xmcd
#
# Track frame offsets: 
#        150
#        16325
#        33445
#        48341
#        65647
#        78055
#        92812
#        107152
#        118461
#        130362
#        143896
#        158443
#        177040
#        192618
#        203833
#        214017
#        226441
#        239541
#        252258
#
# Disc length: 3498 seconds
#
# Revision: 0
# Processed by: cddbd v1.5.2PL0 Copyright (c) Steve Scherf et al.
# Submitted via: ExactAudioCopyFreeDBPlugin 1.0
#
DISCID=0e0da813
DTITLE=Marauders - Red Hot and Rocking
DYEAR=1900
DGENRE=Blues
TTITLE0=Red Red Eyes
TTITLE1=Maybe It's true
TTITLE2=Stop Worryin' Me
TTITLE3=Tougher Than Tough
TTITLE4=Bring Me Trouble
TTITLE5=Head To Toe
TTITLE6=Ridin' On The L&N
TTITLE7=Mess It Up
TTITLE8=I Hear You Knockin'
TTITLE9=Four Time Boogie
TTITLE10=Get A Hat
TTITLE11=Dirty Work
TTITLE12=Another Day
TTITLE13=Duke
TTITLE14=Looking Back
TTITLE15=End Of The Line
TTITLE16=She's In The Middle
TTITLE17=That Enuff Of That Stuff
TTITLE18=Fine, Fine, Fine
EXTD=
EXTT0=
EXTT1=
EXTT2=
EXTT3=
EXTT4=
EXTT5=
EXTT6=
EXTT7=
EXTT8=
EXTT9=
EXTT10=
EXTT11=
EXTT12=
EXTT13=
EXTT14=
EXTT15=
EXTT16=
EXTT17=
EXTT18=
PLAYORDER=
